# xmcd
#
# Track frame offsets: 
#        150
#        10355
#        19770
#        32000
#        41617
#        57720
#        66802
#        78670
#        90670
#        102560
#        113100
#        125115
#        135177
#        146087
#        155505
#
# Disc length: 2252 seconds
#
# Revision: 7
# Processed by: cddbd v1.5.2PL0 Copyright (c) Steve Scherf et al.
# Submitted via: ExactAudioCopy v0.99pb5
#
DISCID=d208ca0f
DTITLE=Various Artist - Classic Country - TL 626-08 - Golden '60s - CD 2
DYEAR=2000
DGENRE=Country
TTITLE0=George Hamilton IV - Abilene
TTITLE1=Jim Reeves - There's a heartache following me
TTITLE2=Burl Ives - Funny way of laughin'
TTITLE3=Eddy Arnold - Misty Blue
TTITLE4=Tammy Wynette and David Houston - My elusive dreams
TTITLE5=Buck Owens - Love's gonna live here
TTITLE6=Kitty Wells - Heartbreak U.S.A.
TTITLE7=Roger Miller - Walking in the sunshine
TTITLE8=Wanda Jackson - Right or wrong
TTITLE9=Cowboy Copas - Alabam
TTITLE10=Hawkshaw Hawkins - Lonesome 7-7203
TTITLE11=Loretta Lynn - You ain't woman enough
TTITLE12=George Jones - Tender years
TTITLE13=Jerry Lee Lewis - One minute past eternety
TTITLE14=Patsy Cline - She's got you
EXTD=YEAR: 2000
EXTT0=
EXTT1=
EXTT2=
EXTT3=
EXTT4=
EXTT5=
EXTT6=
EXTT7=
EXTT8=
EXTT9=
EXTT10=
EXTT11=
EXTT12=
EXTT13=
EXTT14=
PLAYORDER=
